<svg width="121" height="125" viewBox="0 0 121 125" fill="none" xmlns="http://www.w3.org/2000/svg">
    <path d="M44.9969 3.2197H1.89062V46.4015H44.9969V3.2197Z" stroke="white" stroke-width="2"
        stroke-miterlimit="10" />
    <path d="M31.9516 16.4773H15.125V33.3333H31.9516V16.4773Z" fill="white" stroke="white"
        stroke-width="2" stroke-miterlimit="10" />
    <path d="M118.92 3.2197H75.814V46.4015H118.92V3.2197Z" stroke="white" stroke-width="2"
        stroke-miterlimit="10" />
    <path d="M105.875 16.4773H89.0484V33.3333H105.875V16.4773Z" fill="#FBF6F6" stroke="white"
        stroke-width="2" stroke-miterlimit="10" />
    <path d="M44.9969 78.4091H1.89062V121.591H44.9969V78.4091Z" stroke="white" stroke-width="2"
        stroke-miterlimit="10" />
    <path d="M31.9516 91.6667H15.125V108.523H31.9516V91.6667Z" fill="white" stroke="white"
        stroke-width="2" stroke-miterlimit="10" />
    <path d="M60.8782 75.947V116.098H70.8985" stroke="white" stroke-width="2"
        stroke-miterlimit="10" />
    <path d="M89.0484 116.098H112.87V96.0228" stroke="white" stroke-width="2"
        stroke-miterlimit="10" />
    <path d="M112.87 85.4167V78.4091" stroke="white" stroke-width="2" stroke-miterlimit="10" />
    <path d="M60.8782 85.4167H70.8985" stroke="white" stroke-width="2" stroke-miterlimit="10" />
    <path d="M79.0281 83.1439H97.3672" stroke="white" stroke-width="2" stroke-miterlimit="10" />
    <path d="M89.0484 73.4848V83.1439" stroke="white" stroke-width="2" stroke-miterlimit="10" />
    <path d="M71.4656 106.061H78.2718" stroke="white" stroke-width="2" stroke-miterlimit="10" />
    <path d="M83.9438 96.0228H93.3969" stroke="white" stroke-width="2" stroke-miterlimit="10" />
    <path d="M97.3672 103.03V116.098" stroke="white" stroke-width="2" stroke-miterlimit="10" />
    <path d="M65.7937 67.803H74.1125" stroke="white" stroke-width="2" stroke-miterlimit="10" />
    <path d="M108.711 62.1212H116.841" stroke="white" stroke-width="2" stroke-miterlimit="10" />
    <path d="M76.0032 59.6591H82.6204" stroke="white" stroke-width="2" stroke-miterlimit="10" />
    <path d="M95.4766 64.7728H100.581" stroke="white" stroke-width="2" stroke-miterlimit="10" />
    <path d="M60.8782 45.8334V51.5152" stroke="white" stroke-width="2" stroke-miterlimit="10" />
    <path d="M60.8782 28.9772V40.1515" stroke="white" stroke-width="2" stroke-miterlimit="10" />
    <path d="M60.8782 3.2197V19.5076" stroke="white" stroke-width="2" stroke-miterlimit="10" />
    <path d="M19.8516 62.1212H55.7734" stroke="white" stroke-width="2" stroke-miterlimit="10" />
    <path d="M1.89062 62.1212H15.125" stroke="white" stroke-width="2" stroke-miterlimit="10" />
</svg>
